<mxfile host="app.diagrams.net" modified="2024-03-25T07:07:59.821Z" agent="Mozilla/5.0 (X11; Linux x86_64; rv:109.0) Gecko/20100101 Firefox/115.0" version="24.1.0" etag="Z7St6vOZF7u75GkcY_QQ" type="github">
  <diagram name="第 1 页" id="ASBdXgMVDFiUaBpwn8_i">
    <mxGraphModel>
      <root>
        <mxCell id="0" />
        <mxCell id="1" parent="0" />
      </root>
    </mxGraphModel>
  </diagram>
</mxfile>
